<svg width="270" height="270" viewBox="0 0 270 270" fill="none" xmlns="http://www.w3.org/2000/svg"
     xmlns:xlink="http://www.w3.org/1999/xlink">

    <g filter="url(#filter0_i)" transform="translate(-150 -126)">
        <circle cx="150" cy="126" r="10" fill="white" fill-opacity="0.5"/>
        <animateMotion
                dur="3s"
                begin="-0.7s"
                fill="freeze"
                repeatCount="indefinite"
                keyTimes="0;1"
                keySplines="0 0 0.58 1"
                calcMode="spline">
            <mpath xlink:href="#motionPath0"/>
        </animateMotion>
    </g>

    <g filter="url(#filter1_i)" transform="translate(-150 -126)">
        <circle cx="150" cy="126" r="9" fill="white" fill-opacity="0.5"/>
        <animateMotion
                dur="3s"
                begin="-0.5s"
                fill="freeze"
                repeatCount="indefinite"
                keyTimes="0;1"
                keySplines="0 0 0.58 1"
                calcMode="spline">
            <mpath xlink:href="#motionPath1"/>
        </animateMotion>
    </g>

    <g filter="url(#filter2_i)" transform="translate(-150 -126)">
        <circle cx="150" cy="126" r="7" fill="white" fill-opacity="0.5"/>
        <animateMotion
                dur="3s"
                begin="-0.25s"
                fill="freeze"
                repeatCount="indefinite"
                keyTimes="0;1"
                keySplines="0 0 0.58 1"
                calcMode="spline">
            <mpath xlink:href="#motionPath2"/>
        </animateMotion>
    </g>

    <g filter="url(#filter3_i)" transform="translate(-150 -126)">
        <circle cx="150" cy="126" r="5" fill="white" fill-opacity="0.5"/>
        <animateMotion
                dur="3s"
                begin="0s"
                fill="freeze"
                repeatCount="indefinite"
                keyTimes="0;1"
                keySplines="0 0 0.58 1"
                calcMode="spline">
            <mpath xlink:href="#motionPath3"/>
        </animateMotion>
    </g>

    <g>
        <path d="M113.758 183.144C99.3373 171.475 92.1166 152.177 95.874 134.045C100.202 113.156 115.957 90.6614 149.352 90.0644C147.259 89.4219 145.124 88.916 142.965 88.5532C140.996 88.2203 140.011 88.2667 138.318 86.6667C136.625 85.0667 134.732 84 132.367 84C129.638 84 125.789 87.4667 125.789 87.4667C124.619 88.5868 123.906 89.1197 122.344 89.5111C119.998 90.1211 117.708 90.0511 115.373 89.2633C114.32 88.9081 113.268 88.5532 112.097 88.5532C107.969 88.5532 104.565 91.658 104.083 95.6643C103.793 97.6127 102.803 99.4967 101.386 100.731C99.4296 102.517 97.6112 104.477 95.9523 106.578H95.9872C95.1783 107.585 94.4076 108.625 93.6774 109.695C91.433 113.028 89.5686 116.641 88.1568 120.426C87.2374 122.876 86.5208 125.36 86.0006 127.859C85.3445 131.092 85 134.439 85 137.867C85 157.902 96.7696 175.182 113.758 183.144Z" fill="#FFB300"/>
        <path d="M151.172 90.6614C155.046 92.0144 158.718 93.8278 162.11 96.0343C164.582 97.6547 166.9 99.4891 169.041 101.511C133.787 86.8445 111.019 111.111 106.377 132.711C100.721 159.032 123.287 185.875 150.46 185.325L150.458 185.325C120.801 190.579 92.2443 164.356 95.874 134.045C100.202 113.156 115.957 90.6614 149.352 90.0644C149.963 90.2518 150.57 90.4509 151.172 90.6614Z" fill="#FFBA16"/>
        <path d="M116.844 131.645C110.369 163.467 152.237 183.911 175.648 166.583L175.646 166.586C149.506 190.766 103.098 169.329 106.377 132.711C111.019 111.111 133.787 86.8445 169.041 101.511C172.251 104.543 175.059 107.998 177.377 111.786C177.978 112.968 178.461 114.204 178.755 115.517C155.696 91.6445 121.728 107.645 116.844 131.645Z" fill="#FFC335"/>
        <path d="M127.98 130.257C126.336 137.245 128.731 145.867 132.9 150.045C150.979 170.294 186.476 152.089 183.554 127.159L183.567 127.217C190.243 167.079 117.554 180.534 116.844 131.645C121.728 107.645 155.696 91.6445 178.755 115.517C178.956 116.416 179.068 117.351 179.068 118.331C179.068 123.586 176.43 128.162 172.55 131.367C169.356 106.845 134.433 102.845 127.98 130.257Z" fill="#FFCC55"/>
        <path d="M164.254 135.576C152.324 139.323 137.698 139.004 127.98 130.257C134.433 102.845 169.356 106.845 172.55 131.367C170.15 133.349 167.274 134.807 164.254 135.576Z" fill="#FFD674"/>
        <path d="M114.647 92.7519C115.718 94.6808 115.025 97.1142 113.1 98.1871C111.176 99.26 108.747 98.566 107.677 96.6372C106.606 94.7083 107.298 92.2749 109.223 91.202C111.148 90.1291 113.576 90.823 114.647 92.7519Z" fill="#FFEBBC"/>
        <animateTransform
                attributeName="transform"
                type="rotate"
                dur="3s"
                values="0 135 135;360 135 135"
                repeatCount="indefinite"
                keyTimes="0;1"
                keySplines="0.5 0.1 0.5 0.9"
                calcMode="spline"
        />
    </g>

    <defs>
        <path id="motionPath0" d="M150 126C223.5 187 229.5 98.5 234.5 27"/>
        <path id="motionPath1" d="M150 126C217.5 168 233.5 110 193.5 22"/>
        <path id="motionPath2" d="M150 126C198 191 211.5 55.5 249.5 47"/>
        <path id="motionPath3" d="M150 126C220.5 210 214 34.5 214 9"/>
        <filter id="filter0_i" x="138" y="114" width="22" height="22" filterUnits="userSpaceOnUse"
                color-interpolation-filters="sRGB">
            <feFlood flood-opacity="0" result="BackgroundImageFix"/>
            <feBlend mode="normal" in="SourceGraphic" in2="BackgroundImageFix" result="shape"/>
            <feColorMatrix in="SourceAlpha" type="matrix" values="0 0 0 0 0 0 0 0 0 0 0 0 0 0 0 0 0 0 127 0"
                           result="hardAlpha"/>
            <feOffset dx="-2" dy="-2"/>
            <feGaussianBlur stdDeviation="2.5"/>
            <feComposite in2="hardAlpha" operator="arithmetic" k2="-1" k3="1"/>
            <feColorMatrix type="matrix" values="0 0 0 0 0.445833 0 0 0 0 1 0 0 0 0 0.96675 0 0 0 0.4 0"/>
            <feBlend mode="normal" in2="shape" result="effect1_innerShadow"/>
        </filter>
        <filter id="filter1_i" x="139" y="115" width="20" height="20" filterUnits="userSpaceOnUse"
                color-interpolation-filters="sRGB">
            <feFlood flood-opacity="0" result="BackgroundImageFix"/>
            <feBlend mode="normal" in="SourceGraphic" in2="BackgroundImageFix" result="shape"/>
            <feColorMatrix in="SourceAlpha" type="matrix" values="0 0 0 0 0 0 0 0 0 0 0 0 0 0 0 0 0 0 127 0"
                           result="hardAlpha"/>
            <feOffset dx="-2" dy="-2"/>
            <feGaussianBlur stdDeviation="2.5"/>
            <feComposite in2="hardAlpha" operator="arithmetic" k2="-1" k3="1"/>
            <feColorMatrix type="matrix" values="0 0 0 0 0.445833 0 0 0 0 1 0 0 0 0 0.96675 0 0 0 0.4 0"/>
            <feBlend mode="normal" in2="shape" result="effect1_innerShadow"/>
        </filter>
        <filter id="filter2_i" x="141" y="117" width="16" height="16" filterUnits="userSpaceOnUse"
                color-interpolation-filters="sRGB">
            <feFlood flood-opacity="0" result="BackgroundImageFix"/>
            <feBlend mode="normal" in="SourceGraphic" in2="BackgroundImageFix" result="shape"/>
            <feColorMatrix in="SourceAlpha" type="matrix" values="0 0 0 0 0 0 0 0 0 0 0 0 0 0 0 0 0 0 127 0"
                           result="hardAlpha"/>
            <feOffset dx="-2" dy="-2"/>
            <feGaussianBlur stdDeviation="2.5"/>
            <feComposite in2="hardAlpha" operator="arithmetic" k2="-1" k3="1"/>
            <feColorMatrix type="matrix" values="0 0 0 0 0.445833 0 0 0 0 1 0 0 0 0 0.96675 0 0 0 0.4 0"/>
            <feBlend mode="normal" in2="shape" result="effect1_innerShadow"/>
        </filter>
        <filter id="filter3_i" x="143" y="119" width="12" height="12" filterUnits="userSpaceOnUse"
                color-interpolation-filters="sRGB">
            <feFlood flood-opacity="0" result="BackgroundImageFix"/>
            <feBlend mode="normal" in="SourceGraphic" in2="BackgroundImageFix" result="shape"/>
            <feColorMatrix in="SourceAlpha" type="matrix" values="0 0 0 0 0 0 0 0 0 0 0 0 0 0 0 0 0 0 127 0"
                           result="hardAlpha"/>
            <feOffset dx="-2" dy="-2"/>
            <feGaussianBlur stdDeviation="1.5"/>
            <feComposite in2="hardAlpha" operator="arithmetic" k2="-1" k3="1"/>
            <feColorMatrix type="matrix" values="0 0 0 0 0.445833 0 0 0 0 1 0 0 0 0 0.96675 0 0 0 0.3 0"/>
            <feBlend mode="normal" in2="shape" result="effect1_innerShadow"/>
        </filter>
    </defs>
</svg>
